<svg width="68" height="42" viewBox="0 0 68 42" fill="none" xmlns="http://www.w3.org/2000/svg">
<mask id="path-1-inside-1_0_108" fill="white">
<path d="M51.4854 20.0005C51.4852 32.0316 41.7323 41.7846 29.7012 41.7846C17.8582 41.7845 8.22229 32.334 7.92383 20.563L7.91699 20.0005H51.4854Z"/>
</mask>
<path d="M51.4854 20.0005L55.4854 20.0005L55.4854 16.0005H51.4854V20.0005ZM29.7012 41.7846L29.7011 45.7846H29.7012V41.7846ZM7.92383 20.563L3.92412 20.6116L3.92444 20.638L3.92511 20.6644L7.92383 20.563ZM7.91699 20.0005V16.0005H3.86809L3.91729 20.0491L7.91699 20.0005ZM51.4854 20.0005L47.4854 20.0004C47.4852 29.8224 39.5231 37.7846 29.7012 37.7846V41.7846V45.7846C43.9415 45.7846 55.4852 34.2407 55.4854 20.0005L51.4854 20.0005ZM29.7012 41.7846L29.7012 37.7846C20.0334 37.7845 12.1662 30.0692 11.9225 20.4616L7.92383 20.563L3.92511 20.6644C4.27844 34.5989 15.6831 45.7845 29.7011 45.7846L29.7012 41.7846ZM7.92383 20.563L11.9235 20.5144L11.9167 19.9519L7.91699 20.0005L3.91729 20.0491L3.92412 20.6116L7.92383 20.563ZM7.91699 20.0005V24.0005H51.4854V20.0005V16.0005H7.91699V20.0005Z" fill="white" mask="url(#path-1-inside-1_0_108)"/>
<path d="M17 6C25.3652 6 32.3194 12.042 33.7363 20H29.6514C28.297 14.2667 23.1471 10 17 10C9.8203 10 4 15.8203 4 23C4 30.1797 9.8203 36 17 36C18.003 36 18.9793 35.8859 19.917 35.6709V38H25.0059C22.6201 39.276 19.8947 40 17 40C7.61116 40 0 32.3888 0 23C0 13.6112 7.61116 6 17 6Z" fill="white"/>
<path d="M37.997 5.448C38.701 5.448 39.277 5.55467 39.725 5.768C40.1837 5.97067 40.589 6.21067 40.941 6.488C41.1543 6.648 41.3143 6.66933 41.421 6.552C41.5383 6.424 41.6183 6.13067 41.661 5.672H42.029C42.0077 6.07733 41.9917 6.568 41.981 7.144C41.9703 7.70933 41.965 8.46667 41.965 9.416H41.597C41.5223 8.94667 41.4477 8.56267 41.373 8.264C41.309 7.96533 41.2183 7.70933 41.101 7.496C40.9943 7.28267 40.845 7.07467 40.653 6.872C40.3437 6.488 39.965 6.21067 39.517 6.04C39.069 5.86933 38.5943 5.784 38.093 5.784C37.549 5.784 37.069 5.92267 36.653 6.2C36.237 6.46667 35.885 6.85067 35.597 7.352C35.3197 7.85333 35.1063 8.44533 34.957 9.128C34.8077 9.81067 34.733 10.5573 34.733 11.368C34.733 12.2 34.813 12.9573 34.973 13.64C35.133 14.312 35.3623 14.8933 35.661 15.384C35.9703 15.864 36.3383 16.2373 36.765 16.504C37.2023 16.76 37.6877 16.888 38.221 16.888C38.6583 16.888 39.1117 16.8027 39.581 16.632C40.0503 16.4507 40.4237 16.1787 40.701 15.816C40.9997 15.496 41.2023 15.1387 41.309 14.744C41.4263 14.3387 41.5223 13.7893 41.597 13.096H41.965C41.965 14.0773 41.9703 14.872 41.981 15.48C41.9917 16.0773 42.0077 16.584 42.029 17H41.661C41.6183 16.5413 41.5437 16.2533 41.437 16.136C41.341 16.0187 41.1757 16.0347 40.941 16.184C40.5463 16.4613 40.125 16.7067 39.677 16.92C39.2397 17.1227 38.6743 17.224 37.981 17.224C36.925 17.224 36.0023 16.9947 35.213 16.536C34.4237 16.0773 33.8103 15.416 33.373 14.552C32.9357 13.688 32.717 12.648 32.717 11.432C32.717 10.2373 32.941 9.192 33.389 8.296C33.8477 7.4 34.4717 6.70133 35.261 6.2C36.0503 5.69867 36.9623 5.448 37.997 5.448ZM46.6264 4.472V10.296C46.893 9.63467 47.2664 9.176 47.7464 8.92C48.237 8.65333 48.7544 8.52 49.2984 8.52C49.725 8.52 50.0717 8.57867 50.3384 8.696C50.6157 8.80267 50.845 8.952 51.0264 9.144C51.2184 9.34667 51.357 9.608 51.4424 9.928C51.5277 10.248 51.5704 10.68 51.5704 11.224V15.512C51.5704 15.96 51.6557 16.264 51.8264 16.424C52.0077 16.584 52.3064 16.664 52.7224 16.664V17C52.5304 16.9893 52.2424 16.9787 51.8584 16.968C51.4744 16.9467 51.101 16.936 50.7384 16.936C50.365 16.936 49.997 16.9467 49.6344 16.968C49.2824 16.9787 49.021 16.9893 48.8504 17V16.664C49.213 16.664 49.469 16.584 49.6184 16.424C49.7677 16.264 49.8424 15.96 49.8424 15.512V10.776C49.8424 10.4667 49.8157 10.1893 49.7624 9.944C49.709 9.688 49.5917 9.48533 49.4104 9.336C49.2397 9.176 48.9837 9.096 48.6424 9.096C48.2584 9.096 47.9117 9.208 47.6024 9.432C47.3037 9.64533 47.0637 9.944 46.8824 10.328C46.7117 10.712 46.6264 11.1493 46.6264 11.64V15.512C46.6264 15.96 46.701 16.264 46.8504 16.424C46.9997 16.584 47.2557 16.664 47.6184 16.664V17C47.437 16.9893 47.1704 16.9787 46.8184 16.968C46.477 16.9467 46.125 16.936 45.7624 16.936C45.389 16.936 45.005 16.9467 44.6104 16.968C44.2264 16.9787 43.9384 16.9893 43.7464 17V16.664C44.1624 16.664 44.4557 16.584 44.6264 16.424C44.8077 16.264 44.8984 15.96 44.8984 15.512V6.392C44.8984 5.912 44.813 5.56 44.6424 5.336C44.4824 5.10133 44.1837 4.984 43.7464 4.984V4.648C44.0877 4.68 44.4184 4.696 44.7384 4.696C45.0904 4.696 45.4264 4.68 45.7464 4.648C46.0664 4.60533 46.3597 4.54667 46.6264 4.472ZM55.694 4.712C56.0247 4.712 56.302 4.81867 56.526 5.032C56.75 5.23467 56.862 5.49067 56.862 5.8C56.862 6.10933 56.75 6.37067 56.526 6.584C56.302 6.78667 56.0247 6.888 55.694 6.888C55.3633 6.888 55.086 6.78667 54.862 6.584C54.638 6.37067 54.526 6.10933 54.526 5.8C54.526 5.49067 54.638 5.23467 54.862 5.032C55.086 4.81867 55.3633 4.712 55.694 4.712ZM56.654 8.568V15.512C56.654 15.96 56.7393 16.264 56.91 16.424C57.0913 16.584 57.39 16.664 57.806 16.664V17C57.6247 16.9893 57.342 16.9787 56.958 16.968C56.5847 16.9467 56.2007 16.936 55.806 16.936C55.4327 16.936 55.0487 16.9467 54.654 16.968C54.2593 16.9787 53.966 16.9893 53.774 17V16.664C54.19 16.664 54.4833 16.584 54.654 16.424C54.8353 16.264 54.926 15.96 54.926 15.512V10.488C54.926 10.008 54.846 9.656 54.686 9.432C54.526 9.19733 54.222 9.08 53.774 9.08V8.744C54.1153 8.776 54.446 8.792 54.766 8.792C55.1287 8.792 55.4647 8.776 55.774 8.744C56.094 8.70133 56.3873 8.64267 56.654 8.568ZM63.0349 8.52C63.3975 8.52 63.7442 8.568 64.0749 8.664C64.4055 8.74933 64.6935 8.872 64.9389 9.032C65.1949 9.192 65.3869 9.384 65.5149 9.608C65.6535 9.832 65.7229 10.0773 65.7229 10.344C65.7229 10.664 65.6322 10.9147 65.4509 11.096C65.2695 11.2773 65.0349 11.368 64.7469 11.368C64.4589 11.368 64.2189 11.288 64.0269 11.128C63.8349 10.968 63.7389 10.7387 63.7389 10.44C63.7389 10.1627 63.8189 9.93867 63.9789 9.768C64.1389 9.58667 64.3255 9.46933 64.5389 9.416C64.4429 9.256 64.2722 9.12267 64.0269 9.016C63.7922 8.89867 63.5362 8.84 63.2589 8.84C62.9709 8.84 62.6935 8.91467 62.4269 9.064C62.1709 9.21333 61.9415 9.44267 61.7389 9.752C61.5362 10.0613 61.3709 10.4613 61.2429 10.952C61.1255 11.4427 61.0669 12.0347 61.0669 12.728C61.0669 13.624 61.1682 14.3387 61.3709 14.872C61.5842 15.3947 61.8615 15.768 62.2029 15.992C62.5442 16.216 62.9122 16.328 63.3069 16.328C63.5629 16.328 63.8242 16.28 64.0909 16.184C64.3682 16.088 64.6295 15.928 64.8749 15.704C65.1309 15.48 65.3549 15.176 65.5469 14.792L65.8509 14.904C65.7335 15.256 65.5469 15.6133 65.2909 15.976C65.0455 16.3387 64.7202 16.6373 64.3149 16.872C63.9095 17.1067 63.4135 17.224 62.8269 17.224C62.1549 17.224 61.5469 17.0587 61.0029 16.728C60.4589 16.3973 60.0269 15.9173 59.7069 15.288C59.3869 14.648 59.2269 13.8693 59.2269 12.952C59.2269 12.056 59.3869 11.2773 59.7069 10.616C60.0375 9.944 60.4909 9.42667 61.0669 9.064C61.6429 8.70133 62.2989 8.52 63.0349 8.52Z" fill="white"/>
</svg>
